<svg xmlns="http://www.w3.org/2000/svg" viewBox="0 0 100 100">
  <defs>
    <linearGradient id="grad" x1="0%" y1="0%" x2="100%" y2="100%">
      <stop offset="0%" style="stop-color:#14b8a6"/>
      <stop offset="100%" style="stop-color:#0d9488"/>
    </linearGradient>
  </defs>
  <rect width="100" height="100" rx="20" fill="url(#grad)"/>
  <path d="M50 20 C35 20 25 35 25 50 C25 65 35 80 50 80 C65 80 75 65 75 50 C75 35 65 20 50 20 M50 30 C60 30 65 40 65 50 C65 60 60 70 50 70 C40 70 35 60 35 50 C35 40 40 30 50 30" fill="white" opacity="0.9"/>
  <circle cx="50" cy="50" r="8" fill="white"/>
</svg>
